<mxfile host="app.diagrams.net" modified="2020-12-13T15:20:40.653Z" agent="5.0 (Macintosh; Intel Mac OS X 11_0_0) AppleWebKit/537.36 (KHTML, like Gecko) Chrome/87.0.4280.88 Safari/537.36" etag="XIU2oN5ygSL8WLQqA7Km" version="14.0.1" type="github">
  <diagram id="YDn3a22JKy39imLKbDOR" name="Page-1">
    <mxGraphModel dx="787" dy="629" grid="1" gridSize="10" guides="1" tooltips="1" connect="1" arrows="1" fold="1" page="1" pageScale="1" pageWidth="827" pageHeight="1169" math="0" shadow="0">
      <root>
        <mxCell id="0" />
        <mxCell id="1" parent="0" />
        <mxCell id="bF_kGRfRiGxns1VmROGY-40" value="" style="rounded=0;whiteSpace=wrap;html=1;shadow=0;glass=0;dashed=1;sketch=0;strokeColor=#000000;" vertex="1" parent="1">
          <mxGeometry x="660" y="190" width="150" height="140" as="geometry" />
        </mxCell>
        <mxCell id="bF_kGRfRiGxns1VmROGY-11" value="" style="rounded=0;whiteSpace=wrap;html=1;shadow=0;glass=0;dashed=1;sketch=0;strokeColor=#000000;" vertex="1" parent="1">
          <mxGeometry x="310" y="190" width="280" height="140" as="geometry" />
        </mxCell>
        <mxCell id="bF_kGRfRiGxns1VmROGY-8" value="" style="rounded=0;whiteSpace=wrap;html=1;shadow=0;glass=0;sketch=0;strokeColor=#000000;dashed=1;" vertex="1" parent="1">
          <mxGeometry x="310" y="120" width="280" height="60" as="geometry" />
        </mxCell>
        <mxCell id="bF_kGRfRiGxns1VmROGY-1" value="三方应用" style="rounded=0;whiteSpace=wrap;html=1;fillColor=#eeeeee;shadow=0;glass=0;sketch=0;strokeColor=#36393d;" vertex="1" parent="1">
          <mxGeometry x="310" y="80" width="110" height="30" as="geometry" />
        </mxCell>
        <mxCell id="bF_kGRfRiGxns1VmROGY-2" value="内部应用" style="rounded=0;whiteSpace=wrap;html=1;fillColor=#eeeeee;shadow=0;glass=0;sketch=0;strokeColor=#36393d;" vertex="1" parent="1">
          <mxGeometry x="472" y="80" width="118" height="30" as="geometry" />
        </mxCell>
        <mxCell id="bF_kGRfRiGxns1VmROGY-10" value="通信协议" style="text;html=1;strokeColor=none;fillColor=none;align=center;verticalAlign=middle;whiteSpace=wrap;rounded=0;shadow=0;glass=0;dashed=1;sketch=0;" vertex="1" parent="1">
          <mxGeometry x="414" y="130" width="64" height="10" as="geometry" />
        </mxCell>
        <mxCell id="bF_kGRfRiGxns1VmROGY-38" value="" style="edgeStyle=orthogonalEdgeStyle;rounded=0;orthogonalLoop=1;jettySize=auto;html=1;" edge="1" parent="1" source="bF_kGRfRiGxns1VmROGY-12" target="bF_kGRfRiGxns1VmROGY-13">
          <mxGeometry relative="1" as="geometry" />
        </mxCell>
        <mxCell id="bF_kGRfRiGxns1VmROGY-12" value="权限控制" style="rounded=1;whiteSpace=wrap;html=1;shadow=0;glass=0;sketch=0;strokeColor=#000000;" vertex="1" parent="1">
          <mxGeometry x="328" y="220" width="60" height="20" as="geometry" />
        </mxCell>
        <mxCell id="bF_kGRfRiGxns1VmROGY-16" value="" style="edgeStyle=orthogonalEdgeStyle;rounded=0;orthogonalLoop=1;jettySize=auto;html=1;" edge="1" parent="1" source="bF_kGRfRiGxns1VmROGY-13" target="bF_kGRfRiGxns1VmROGY-14">
          <mxGeometry relative="1" as="geometry" />
        </mxCell>
        <mxCell id="bF_kGRfRiGxns1VmROGY-13" value="流量控制" style="rounded=1;whiteSpace=wrap;html=1;shadow=0;glass=0;sketch=0;strokeColor=#000000;" vertex="1" parent="1">
          <mxGeometry x="418" y="220" width="60" height="20" as="geometry" />
        </mxCell>
        <mxCell id="bF_kGRfRiGxns1VmROGY-34" style="edgeStyle=orthogonalEdgeStyle;rounded=0;orthogonalLoop=1;jettySize=auto;html=1;entryX=0.5;entryY=0;entryDx=0;entryDy=0;" edge="1" parent="1" source="bF_kGRfRiGxns1VmROGY-14" target="bF_kGRfRiGxns1VmROGY-22">
          <mxGeometry relative="1" as="geometry" />
        </mxCell>
        <mxCell id="bF_kGRfRiGxns1VmROGY-14" value="黑白名单" style="rounded=1;whiteSpace=wrap;html=1;shadow=0;glass=0;sketch=0;strokeColor=#000000;" vertex="1" parent="1">
          <mxGeometry x="508" y="220" width="60" height="20" as="geometry" />
        </mxCell>
        <mxCell id="bF_kGRfRiGxns1VmROGY-35" style="edgeStyle=orthogonalEdgeStyle;rounded=0;orthogonalLoop=1;jettySize=auto;html=1;entryX=0.5;entryY=0;entryDx=0;entryDy=0;" edge="1" parent="1" source="bF_kGRfRiGxns1VmROGY-20" target="bF_kGRfRiGxns1VmROGY-23">
          <mxGeometry relative="1" as="geometry" />
        </mxCell>
        <mxCell id="bF_kGRfRiGxns1VmROGY-20" value="安全控制" style="rounded=1;whiteSpace=wrap;html=1;shadow=0;glass=0;sketch=0;strokeColor=#000000;" vertex="1" parent="1">
          <mxGeometry x="328" y="260" width="60" height="20" as="geometry" />
        </mxCell>
        <mxCell id="bF_kGRfRiGxns1VmROGY-30" style="edgeStyle=orthogonalEdgeStyle;rounded=0;orthogonalLoop=1;jettySize=auto;html=1;entryX=1;entryY=0.5;entryDx=0;entryDy=0;" edge="1" parent="1" source="bF_kGRfRiGxns1VmROGY-21" target="bF_kGRfRiGxns1VmROGY-20">
          <mxGeometry relative="1" as="geometry" />
        </mxCell>
        <mxCell id="bF_kGRfRiGxns1VmROGY-21" value="参数校验" style="rounded=1;whiteSpace=wrap;html=1;shadow=0;glass=0;sketch=0;strokeColor=#000000;" vertex="1" parent="1">
          <mxGeometry x="418" y="260" width="60" height="20" as="geometry" />
        </mxCell>
        <mxCell id="bF_kGRfRiGxns1VmROGY-31" style="edgeStyle=orthogonalEdgeStyle;rounded=0;orthogonalLoop=1;jettySize=auto;html=1;exitX=0;exitY=0.5;exitDx=0;exitDy=0;entryX=1;entryY=0.5;entryDx=0;entryDy=0;" edge="1" parent="1" source="bF_kGRfRiGxns1VmROGY-22" target="bF_kGRfRiGxns1VmROGY-21">
          <mxGeometry relative="1" as="geometry" />
        </mxCell>
        <mxCell id="bF_kGRfRiGxns1VmROGY-22" value="参数映射" style="rounded=1;whiteSpace=wrap;html=1;shadow=0;glass=0;sketch=0;strokeColor=#000000;" vertex="1" parent="1">
          <mxGeometry x="508" y="260" width="60" height="20" as="geometry" />
        </mxCell>
        <mxCell id="bF_kGRfRiGxns1VmROGY-32" value="" style="edgeStyle=orthogonalEdgeStyle;rounded=0;orthogonalLoop=1;jettySize=auto;html=1;" edge="1" parent="1" source="bF_kGRfRiGxns1VmROGY-23" target="bF_kGRfRiGxns1VmROGY-24">
          <mxGeometry relative="1" as="geometry" />
        </mxCell>
        <mxCell id="bF_kGRfRiGxns1VmROGY-23" value="参数转换" style="rounded=1;whiteSpace=wrap;html=1;shadow=0;glass=0;sketch=0;strokeColor=#000000;" vertex="1" parent="1">
          <mxGeometry x="328" y="300" width="60" height="20" as="geometry" />
        </mxCell>
        <mxCell id="bF_kGRfRiGxns1VmROGY-33" value="" style="edgeStyle=orthogonalEdgeStyle;rounded=0;orthogonalLoop=1;jettySize=auto;html=1;" edge="1" parent="1" source="bF_kGRfRiGxns1VmROGY-24" target="bF_kGRfRiGxns1VmROGY-25">
          <mxGeometry relative="1" as="geometry" />
        </mxCell>
        <mxCell id="bF_kGRfRiGxns1VmROGY-24" value="服务调用" style="rounded=1;whiteSpace=wrap;html=1;shadow=0;glass=0;sketch=0;strokeColor=#000000;" vertex="1" parent="1">
          <mxGeometry x="418" y="300" width="60" height="20" as="geometry" />
        </mxCell>
        <mxCell id="bF_kGRfRiGxns1VmROGY-25" value="日志打点" style="rounded=1;whiteSpace=wrap;html=1;shadow=0;glass=0;sketch=0;strokeColor=#000000;" vertex="1" parent="1">
          <mxGeometry x="508" y="300" width="60" height="20" as="geometry" />
        </mxCell>
        <mxCell id="bF_kGRfRiGxns1VmROGY-39" value="访问控制" style="text;html=1;strokeColor=none;fillColor=none;align=center;verticalAlign=middle;whiteSpace=wrap;rounded=0;shadow=0;glass=0;dashed=1;sketch=0;" vertex="1" parent="1">
          <mxGeometry x="416" y="200" width="64" height="10" as="geometry" />
        </mxCell>
        <mxCell id="bF_kGRfRiGxns1VmROGY-41" value="调用记录查询" style="rounded=1;whiteSpace=wrap;html=1;shadow=0;glass=0;sketch=0;strokeColor=#000000;" vertex="1" parent="1">
          <mxGeometry x="690" y="220" width="80" height="20" as="geometry" />
        </mxCell>
        <mxCell id="bF_kGRfRiGxns1VmROGY-42" value="实时分析统计" style="rounded=1;whiteSpace=wrap;html=1;shadow=0;glass=0;sketch=0;strokeColor=#000000;" vertex="1" parent="1">
          <mxGeometry x="690" y="260" width="80" height="20" as="geometry" />
        </mxCell>
        <mxCell id="bF_kGRfRiGxns1VmROGY-43" value="离线分析统计" style="rounded=1;whiteSpace=wrap;html=1;shadow=0;glass=0;sketch=0;strokeColor=#000000;" vertex="1" parent="1">
          <mxGeometry x="690" y="300" width="80" height="20" as="geometry" />
        </mxCell>
        <mxCell id="bF_kGRfRiGxns1VmROGY-44" value="日志与监控" style="text;html=1;strokeColor=none;fillColor=none;align=center;verticalAlign=middle;whiteSpace=wrap;rounded=0;shadow=0;glass=0;dashed=1;sketch=0;" vertex="1" parent="1">
          <mxGeometry x="698" y="200" width="64" height="10" as="geometry" />
        </mxCell>
        <mxCell id="bF_kGRfRiGxns1VmROGY-46" value="" style="shape=flexArrow;endArrow=classic;html=1;fontSize=6;fontFamily=Helvetica;width=20;entryX=-0.027;entryY=0.586;entryDx=0;entryDy=0;entryPerimeter=0;" edge="1" parent="1" target="bF_kGRfRiGxns1VmROGY-40">
          <mxGeometry width="50" height="50" relative="1" as="geometry">
            <mxPoint x="600" y="272" as="sourcePoint" />
            <mxPoint x="650" y="269.5" as="targetPoint" />
          </mxGeometry>
        </mxCell>
        <mxCell id="bF_kGRfRiGxns1VmROGY-52" value="&lt;font style=&quot;font-size: 8px;&quot; face=&quot;Verdana&quot;&gt;日志上传&lt;/font&gt;" style="edgeLabel;html=1;align=center;verticalAlign=middle;resizable=0;points=[];fontSize=8;" vertex="1" connectable="0" parent="bF_kGRfRiGxns1VmROGY-46">
          <mxGeometry x="-0.04" y="1" relative="1" as="geometry">
            <mxPoint x="-7" y="28.98" as="offset" />
          </mxGeometry>
        </mxCell>
        <mxCell id="bF_kGRfRiGxns1VmROGY-53" value="" style="rounded=0;whiteSpace=wrap;html=1;shadow=0;glass=0;dashed=1;sketch=0;strokeColor=#000000;" vertex="1" parent="1">
          <mxGeometry x="90" y="190" width="150" height="140" as="geometry" />
        </mxCell>
        <mxCell id="bF_kGRfRiGxns1VmROGY-54" value="Local Cache" style="rounded=1;whiteSpace=wrap;html=1;shadow=0;glass=0;sketch=0;strokeColor=#000000;" vertex="1" parent="1">
          <mxGeometry x="120" y="220" width="80" height="20" as="geometry" />
        </mxCell>
        <mxCell id="bF_kGRfRiGxns1VmROGY-55" value="Remote Cache" style="rounded=1;whiteSpace=wrap;html=1;shadow=0;glass=0;sketch=0;strokeColor=#000000;" vertex="1" parent="1">
          <mxGeometry x="115" y="260" width="90" height="20" as="geometry" />
        </mxCell>
        <mxCell id="bF_kGRfRiGxns1VmROGY-56" value="Database" style="rounded=1;whiteSpace=wrap;html=1;shadow=0;glass=0;sketch=0;strokeColor=#000000;" vertex="1" parent="1">
          <mxGeometry x="120" y="300" width="80" height="20" as="geometry" />
        </mxCell>
        <mxCell id="bF_kGRfRiGxns1VmROGY-57" value="数据源" style="text;html=1;strokeColor=none;fillColor=none;align=center;verticalAlign=middle;whiteSpace=wrap;rounded=0;shadow=0;glass=0;dashed=1;sketch=0;" vertex="1" parent="1">
          <mxGeometry x="128" y="200" width="64" height="10" as="geometry" />
        </mxCell>
        <mxCell id="bF_kGRfRiGxns1VmROGY-58" value="" style="shape=flexArrow;endArrow=classic;html=1;fontSize=6;fontFamily=Helvetica;width=20;entryX=-0.027;entryY=0.586;entryDx=0;entryDy=0;entryPerimeter=0;" edge="1" parent="1">
          <mxGeometry width="50" height="50" relative="1" as="geometry">
            <mxPoint x="250" y="260" as="sourcePoint" />
            <mxPoint x="305.95000000000005" y="260.03999999999996" as="targetPoint" />
          </mxGeometry>
        </mxCell>
        <mxCell id="bF_kGRfRiGxns1VmROGY-59" value="&lt;font style=&quot;font-size: 8px;&quot; face=&quot;Verdana&quot;&gt;日志上传&lt;/font&gt;" style="edgeLabel;html=1;align=center;verticalAlign=middle;resizable=0;points=[];fontSize=8;" vertex="1" connectable="0" parent="bF_kGRfRiGxns1VmROGY-58">
          <mxGeometry x="-0.04" y="1" relative="1" as="geometry">
            <mxPoint x="-7" y="28.98" as="offset" />
          </mxGeometry>
        </mxCell>
        <mxCell id="bF_kGRfRiGxns1VmROGY-60" value="" style="rounded=0;whiteSpace=wrap;html=1;shadow=0;glass=0;sketch=0;strokeColor=#000000;dashed=1;" vertex="1" parent="1">
          <mxGeometry x="310" y="340" width="280" height="60" as="geometry" />
        </mxCell>
        <mxCell id="bF_kGRfRiGxns1VmROGY-62" value="HTTP" style="rounded=1;whiteSpace=wrap;html=1;shadow=0;glass=0;sketch=0;strokeColor=#000000;" vertex="1" parent="1">
          <mxGeometry x="320" y="370" width="50" height="20" as="geometry" />
        </mxCell>
        <mxCell id="bF_kGRfRiGxns1VmROGY-63" value="TCP" style="rounded=1;whiteSpace=wrap;html=1;shadow=0;glass=0;sketch=0;strokeColor=#000000;" vertex="1" parent="1">
          <mxGeometry x="383.5" y="370" width="60" height="20" as="geometry" />
        </mxCell>
        <mxCell id="bF_kGRfRiGxns1VmROGY-64" value="服务协议" style="text;html=1;strokeColor=none;fillColor=none;align=center;verticalAlign=middle;whiteSpace=wrap;rounded=0;shadow=0;glass=0;dashed=1;sketch=0;" vertex="1" parent="1">
          <mxGeometry x="414" y="350" width="64" height="10" as="geometry" />
        </mxCell>
        <mxCell id="bF_kGRfRiGxns1VmROGY-65" value="websocket" style="rounded=1;whiteSpace=wrap;html=1;shadow=0;glass=0;sketch=0;strokeColor=#000000;" vertex="1" parent="1">
          <mxGeometry x="460" y="370" width="60" height="20" as="geometry" />
        </mxCell>
        <mxCell id="bF_kGRfRiGxns1VmROGY-66" value="JSF" style="rounded=1;whiteSpace=wrap;html=1;shadow=0;glass=0;sketch=0;strokeColor=#000000;" vertex="1" parent="1">
          <mxGeometry x="530" y="370" width="50" height="20" as="geometry" />
        </mxCell>
        <mxCell id="bF_kGRfRiGxns1VmROGY-67" value="HTTP" style="rounded=1;whiteSpace=wrap;html=1;shadow=0;glass=0;sketch=0;strokeColor=#000000;" vertex="1" parent="1">
          <mxGeometry x="318" y="150" width="50" height="20" as="geometry" />
        </mxCell>
        <mxCell id="bF_kGRfRiGxns1VmROGY-68" value="TCP" style="rounded=1;whiteSpace=wrap;html=1;shadow=0;glass=0;sketch=0;strokeColor=#000000;" vertex="1" parent="1">
          <mxGeometry x="381.5" y="150" width="60" height="20" as="geometry" />
        </mxCell>
        <mxCell id="bF_kGRfRiGxns1VmROGY-69" value="websocket" style="rounded=1;whiteSpace=wrap;html=1;shadow=0;glass=0;sketch=0;strokeColor=#000000;" vertex="1" parent="1">
          <mxGeometry x="458" y="150" width="60" height="20" as="geometry" />
        </mxCell>
        <mxCell id="bF_kGRfRiGxns1VmROGY-70" value="JSF" style="rounded=1;whiteSpace=wrap;html=1;shadow=0;glass=0;sketch=0;strokeColor=#000000;" vertex="1" parent="1">
          <mxGeometry x="528" y="150" width="50" height="20" as="geometry" />
        </mxCell>
        <mxCell id="bF_kGRfRiGxns1VmROGY-71" value="京东" style="rounded=0;whiteSpace=wrap;html=1;shadow=0;glass=0;sketch=0;strokeColor=#36393d;fontFamily=Helvetica;fontSize=6;fillColor=#f9f7ed;" vertex="1" parent="1">
          <mxGeometry x="310" y="410" width="120" height="30" as="geometry" />
        </mxCell>
        <mxCell id="bF_kGRfRiGxns1VmROGY-72" value="ISV" style="rounded=0;whiteSpace=wrap;html=1;shadow=0;glass=0;sketch=0;strokeColor=#36393d;fontFamily=Helvetica;fontSize=6;fillColor=#f9f7ed;" vertex="1" parent="1">
          <mxGeometry x="460" y="410" width="130" height="30" as="geometry" />
        </mxCell>
      </root>
    </mxGraphModel>
  </diagram>
</mxfile>
